<svg width="203" height="108" viewBox="0 0 203 108" fill="none" xmlns="http://www.w3.org/2000/svg">
<path d="M101.5 0C157.557 0 203 48.3532 203 108H184C184 60.5035 147.063 22 101.5 22C55.9365 22 19 60.5035 19 108H0C0 72.6112 15.9969 41.1979 40.7158 21.5C57.6599 7.99776 78.7021 0 101.5 0Z" fill="url(#paint0_linear_52_3)"/>
<path d="M6.76318 99.0155L14.0359 99.024L14.0336 100.998L8.57907 100.992L8.57903 101.035L9.52889 102.627L7.85275 102.625L6.76108 100.834L6.76318 99.0155Z" fill="white"/>
<path d="M53.911 28.3928L53.1286 27.2072L54.1569 23.8397C54.2249 23.6161 54.2764 23.4148 54.3114 23.2357C54.3471 23.0533 54.3551 22.8849 54.3355 22.7305C54.3178 22.5748 54.262 22.4259 54.1682 22.2836C54.0651 22.1275 53.9435 22.0163 53.8033 21.95C53.6651 21.8823 53.5181 21.8573 53.3624 21.875C53.2054 21.8907 53.0509 21.9487 52.8987 22.0491C52.7466 22.1495 52.6324 22.2688 52.5563 22.407C52.4821 22.5439 52.4525 22.6925 52.4675 22.8528C52.4825 23.013 52.5461 23.1782 52.6582 23.3481L51.0933 24.3808C50.8116 23.954 50.6649 23.5232 50.6531 23.0885C50.6414 22.6538 50.7556 22.238 50.9958 21.8412C51.2361 21.4445 51.5913 21.0909 52.0616 20.7806C52.5477 20.4598 53.02 20.2601 53.4787 20.1815C53.9381 20.0996 54.3572 20.135 54.736 20.2878C55.1168 20.4393 55.4317 20.7038 55.6807 21.0812C55.8346 21.3144 55.9394 21.5785 55.9951 21.8736C56.0496 22.1667 56.0433 22.5353 55.9762 22.9795C55.9091 23.4238 55.7715 23.9911 55.5634 24.6815L55.3072 25.5313L55.3307 25.5668L57.7019 24.0021L58.5703 25.3181L53.911 28.3928Z" fill="white"/>
<path d="M191.092 98.0823L192.624 98.0163L197.348 100.742L197.408 102.132L195.365 102.22L195.33 101.426L192.765 99.958L192.708 99.9605L192.894 104.275L191.361 104.341L191.092 98.0823ZM190.109 101.665L191.712 101.596L192.381 101.61L197.376 101.394L197.456 103.239L190.19 103.552L190.109 101.665Z" fill="white"/>
<path d="M148.924 28.4192C148.426 28.1353 148.033 27.7977 147.743 27.4064C147.457 27.0143 147.291 26.6044 147.243 26.1765C147.196 25.7487 147.283 25.3379 147.505 24.944L149.232 25.9295C149.165 26.052 149.14 26.1821 149.157 26.3198C149.177 26.4566 149.235 26.5881 149.332 26.7144C149.429 26.8406 149.56 26.9506 149.724 27.0444C149.883 27.1348 150.038 27.1868 150.191 27.2005C150.346 27.2122 150.485 27.187 150.611 27.1249C150.736 27.0629 150.835 26.9665 150.906 26.8358C150.981 26.7095 151.007 26.5741 150.983 26.4296C150.961 26.2864 150.895 26.1465 150.785 26.01C150.675 25.8735 150.527 25.7525 150.342 25.6469L149.7 25.2808L150.376 24.0964L151.018 24.4625C151.188 24.5599 151.354 24.6178 151.516 24.6362C151.679 24.6557 151.825 24.6367 151.953 24.5791C152.083 24.5226 152.184 24.4301 152.254 24.3014C152.327 24.1792 152.359 24.0532 152.352 23.9234C152.344 23.7936 152.3 23.6703 152.219 23.5535C152.141 23.4379 152.03 23.339 151.886 23.2568C151.729 23.1677 151.574 23.1157 151.419 23.1008C151.266 23.0871 151.126 23.1096 151 23.1684C150.874 23.2272 150.773 23.3198 150.698 23.4461L149.057 22.5099C149.28 22.1245 149.581 21.8435 149.959 21.6671C150.34 21.4919 150.763 21.4249 151.227 21.4663C151.691 21.5077 152.162 21.6645 152.639 21.9367C153.106 22.2031 153.473 22.5175 153.74 22.88C154.01 23.2436 154.166 23.6217 154.209 24.0143C154.255 24.406 154.176 24.7791 153.971 25.1337C153.773 25.4897 153.487 25.7104 153.111 25.7958C152.737 25.8824 152.35 25.8388 151.951 25.6653L151.922 25.7146C152.401 26.0611 152.695 26.4362 152.805 26.8399C152.917 27.2415 152.86 27.6344 152.636 28.0187C152.426 28.39 152.128 28.6546 151.741 28.8125C151.356 28.9716 150.919 29.0192 150.429 28.9552C149.942 28.8924 149.44 28.7137 148.924 28.4192Z" fill="white"/>
<defs>
<linearGradient id="paint0_linear_52_3" x1="22.5" y1="108" x2="189.5" y2="108" gradientUnits="userSpaceOnUse">
<stop stop-color="#00B509"/>
<stop offset="0.5" stop-color="#FFB300"/>
<stop offset="1" stop-color="#FF2600"/>
</linearGradient>
</defs>
</svg>
