<svg width="203" height="108" viewBox="0 0 203 108" fill="none" xmlns="http://www.w3.org/2000/svg">
<path d="M101.5 0C157.557 0 203 48.3532 203 108H184C184 60.5035 147.063 22 101.5 22C55.9365 22 19 60.5035 19 108H0C0 72.6112 15.9969 41.1979 40.7158 21.5C57.6599 7.99776 78.7021 0 101.5 0Z" fill="url(#paint0_linear_52_14)"/>
<path d="M14.2343 99.4219C14.2312 100.082 14.0778 100.653 13.7742 101.133C13.4706 101.613 13.0334 101.983 12.4626 102.243C11.8917 102.503 11.2074 102.631 10.4096 102.628C9.60938 102.624 8.93008 102.493 8.37167 102.235C7.81326 101.974 7.38873 101.604 7.0981 101.125C6.80746 100.644 6.66252 100.074 6.66329 99.4131C6.66406 98.7526 6.8115 98.1822 7.10561 97.702C7.39736 97.2217 7.82275 96.8517 8.38176 96.592C8.94077 96.3322 9.61919 96.204 10.417 96.2073C11.2196 96.2082 11.906 96.3392 12.4762 96.6003C13.0465 96.8613 13.4828 97.2324 13.7853 97.7133C14.0854 98.1919 14.2351 98.7614 14.2343 99.4219ZM12.6292 99.42C12.6296 99.0791 12.4524 98.7996 12.0975 98.5814C11.7403 98.3608 11.1793 98.2512 10.4146 98.2527C9.91511 98.2521 9.50667 98.3014 9.18932 98.4004C8.87197 98.4995 8.63744 98.6365 8.48572 98.8116C8.33164 98.9866 8.25446 99.1877 8.2542 99.415C8.2538 99.7559 8.4263 100.034 8.7717 100.25C9.11709 100.466 9.66384 100.577 10.4119 100.582C10.9209 100.585 11.34 100.537 11.6692 100.438C11.996 100.339 12.2377 100.202 12.3941 100.027C12.5506 99.8496 12.6289 99.6473 12.6292 99.42Z" fill="white"/>
<path d="M195.807 88.0541L188.576 88.832L188.365 86.8689L193.788 86.2855L193.783 86.2431L192.667 84.7631L194.334 84.5838L195.612 86.2463L195.807 88.0541ZM188.877 93.4874C188.809 92.8304 188.899 92.2468 189.149 91.7366C189.399 91.2263 189.794 90.8112 190.333 90.4913C190.873 90.1713 191.539 89.9699 192.333 89.8869C193.128 89.8036 193.818 89.8604 194.401 90.0572C194.984 90.2564 195.446 90.5781 195.787 91.0225C196.128 91.4691 196.334 92.0208 196.404 92.6776C196.475 93.3343 196.39 93.9173 196.15 94.4265C195.912 94.9355 195.529 95.3493 195.001 95.668C194.473 95.9867 193.813 96.1875 193.019 96.2705C192.221 96.3563 191.525 96.3003 190.93 96.1024C190.335 95.9045 189.861 95.5829 189.508 95.1375C189.158 94.6942 188.947 94.1441 188.877 93.4874ZM190.473 93.3157C190.509 93.6547 190.716 93.9134 191.092 94.092C191.471 94.2727 192.04 94.3209 192.801 94.2368C193.297 94.1833 193.698 94.0902 194.003 93.9574C194.307 93.8246 194.526 93.663 194.658 93.4727C194.792 93.282 194.847 93.0737 194.823 92.8477C194.786 92.5088 194.585 92.2507 194.218 92.0735C193.851 91.8962 193.296 91.8453 192.551 91.9206C192.045 91.9727 191.634 92.0658 191.317 92.1998C191.003 92.3336 190.777 92.496 190.641 92.6869C190.504 92.8801 190.448 93.0897 190.473 93.3157ZM189.658 100.75C189.59 100.093 189.681 99.5096 189.931 98.9994C190.18 98.4891 190.575 98.074 191.115 97.7541C191.654 97.4341 192.32 97.2326 193.114 97.1497C193.91 97.0664 194.599 97.1232 195.182 97.32C195.766 97.5192 196.228 97.8409 196.568 98.2852C196.909 98.7319 197.115 99.2836 197.186 99.9403C197.256 100.597 197.172 101.18 196.931 101.689C196.693 102.198 196.31 102.612 195.782 102.931C195.255 103.249 194.594 103.45 193.801 103.533C193.003 103.619 192.306 103.563 191.711 103.365C191.116 103.167 190.642 102.846 190.289 102.4C189.939 101.957 189.729 101.407 189.658 100.75ZM191.254 100.578C191.291 100.917 191.497 101.176 191.873 101.355C192.252 101.535 192.822 101.584 193.582 101.5C194.079 101.446 194.479 101.353 194.784 101.22C195.089 101.087 195.307 100.926 195.439 100.735C195.573 100.545 195.628 100.336 195.604 100.111C195.568 99.7716 195.366 99.5135 194.999 99.3362C194.633 99.159 194.077 99.1081 193.333 99.1834C192.826 99.2355 192.415 99.3285 192.098 99.4626C191.784 99.5964 191.559 99.7588 191.422 99.9497C191.286 100.143 191.23 100.353 191.254 100.578Z" fill="white"/>
<defs>
<linearGradient id="paint0_linear_52_14" x1="22.5" y1="108" x2="189.5" y2="108" gradientUnits="userSpaceOnUse">
<stop stop-color="#00B509"/>
<stop offset="0.5" stop-color="#FFB300"/>
<stop offset="1" stop-color="#FF2600"/>
</linearGradient>
</defs>
</svg>
