<svg width="200" height="100" viewBox="0 0 200 100" fill="none" xmlns="http://www.w3.org/2000/svg">
<path d="M200 100H0C0 44.7715 44.7715 0 100 0C155.228 0 200 44.7715 200 100Z" fill="url(#paint0_linear_30_102)"/>
<path d="M7.92045 96.1591C7.39205 96.1572 6.93561 96.035 6.55114 95.7926C6.16667 95.5502 5.87027 95.2008 5.66193 94.7443C5.4536 94.2879 5.35038 93.7405 5.35227 93.1023C5.35417 92.4621 5.45833 91.9186 5.66477 91.4716C5.87311 91.0246 6.16856 90.6847 6.55114 90.4517C6.93561 90.2188 7.39205 90.1023 7.92045 90.1023C8.44886 90.1023 8.9053 90.2197 9.28977 90.4545C9.67424 90.6875 9.97064 91.0275 10.179 91.4744C10.3873 91.9214 10.4905 92.464 10.4886 93.1023C10.4886 93.7443 10.3845 94.2936 10.1761 94.75C9.9678 95.2064 9.6714 95.5559 9.28693 95.7983C8.90436 96.0388 8.44886 96.1591 7.92045 96.1591ZM7.92045 94.875C8.19318 94.875 8.41667 94.733 8.59091 94.4489C8.76705 94.1629 8.85417 93.714 8.85227 93.1023C8.85227 92.7027 8.8125 92.3759 8.73295 92.1222C8.65341 91.8684 8.54356 91.6809 8.40341 91.5597C8.26326 91.4366 8.10227 91.375 7.92045 91.375C7.64773 91.375 7.42519 91.5133 7.25284 91.7898C7.08049 92.0663 6.99242 92.5038 6.98864 93.1023C6.98674 93.5095 7.02557 93.8447 7.10511 94.108C7.18466 94.3693 7.29451 94.5625 7.43466 94.6875C7.5767 94.8125 7.73864 94.875 7.92045 94.875Z" fill="white"/>
<path d="M184.372 90.3704V96.1886H182.792V91.8249H182.758L181.485 92.5863V91.2454L182.917 90.3704H184.372Z" fill="white"/>
<path d="M188.1 96.3476C187.572 96.3458 187.116 96.2236 186.731 95.9812C186.347 95.7387 186.05 95.3893 185.842 94.9329C185.634 94.4764 185.53 93.9291 185.532 93.2908C185.534 92.6507 185.638 92.1071 185.845 91.6601C186.053 91.2132 186.348 90.8732 186.731 90.6403C187.116 90.4073 187.572 90.2908 188.1 90.2908C188.629 90.2908 189.085 90.4083 189.47 90.6431C189.854 90.8761 190.151 91.216 190.359 91.663C190.567 92.11 190.67 92.6526 190.669 93.2908C190.669 93.9329 190.564 94.4821 190.356 94.9386C190.148 95.395 189.851 95.7444 189.467 95.9869C189.084 96.2274 188.629 96.3476 188.1 96.3476ZM188.1 95.0636C188.373 95.0636 188.597 94.9215 188.771 94.6374C188.947 94.3514 189.034 93.9026 189.032 93.2908C189.032 92.8912 188.992 92.5645 188.913 92.3107C188.833 92.0569 188.723 91.8694 188.583 91.7482C188.443 91.6251 188.282 91.5636 188.1 91.5636C187.828 91.5636 187.605 91.7018 187.433 91.9783C187.26 92.2548 187.172 92.6923 187.169 93.2908C187.167 93.698 187.205 94.0333 187.285 94.2965C187.365 94.5579 187.474 94.7511 187.615 94.8761C187.757 95.0011 187.919 95.0636 188.1 95.0636Z" fill="white"/>
<path d="M193.944 96.3476C193.416 96.3458 192.959 96.2236 192.575 95.9812C192.19 95.7387 191.894 95.3893 191.686 94.9329C191.477 94.4764 191.374 93.9291 191.376 93.2908C191.378 92.6507 191.482 92.1071 191.688 91.6601C191.897 91.2132 192.192 90.8732 192.575 90.6403C192.959 90.4073 193.416 90.2908 193.944 90.2908C194.473 90.2908 194.929 90.4083 195.313 90.6431C195.698 90.8761 195.994 91.216 196.203 91.663C196.411 92.11 196.514 92.6526 196.512 93.2908C196.512 93.9329 196.408 94.4821 196.2 94.9386C195.991 95.395 195.695 95.7444 195.311 95.9869C194.928 96.2274 194.473 96.3476 193.944 96.3476ZM193.944 95.0636C194.217 95.0636 194.44 94.9215 194.615 94.6374C194.791 94.3514 194.878 93.9026 194.876 93.2908C194.876 92.8912 194.836 92.5645 194.757 92.3107C194.677 92.0569 194.567 91.8694 194.427 91.7482C194.287 91.6251 194.126 91.5636 193.944 91.5636C193.671 91.5636 193.449 91.7018 193.277 91.9783C193.104 92.2548 193.016 92.6923 193.012 93.2908C193.01 93.698 193.049 94.0333 193.129 94.2965C193.208 94.5579 193.318 94.7511 193.458 94.8761C193.6 95.0011 193.762 95.0636 193.944 95.0636Z" fill="white"/>
<defs>
<linearGradient id="paint0_linear_30_102" x1="200" y1="100" x2="0" y2="100" gradientUnits="userSpaceOnUse">
<stop stop-color="#FF0000"/>
<stop offset="0.5" stop-color="#FFB300"/>
<stop offset="1" stop-color="#00FF08"/>
</linearGradient>
</defs>
</svg>
