<svg width="201" height="100" viewBox="0 0 201 100" fill="none" xmlns="http://www.w3.org/2000/svg">
<path d="M49 13.9645C19.6623 31.3927 0 63.4002 0 100H100L49 13.9645Z" fill="url(#paint0_linear_21_73)"/>
<path d="M49 13.9645C63.9324 5.09377 81.3713 0 100 0C118.629 0 136.068 5.09377 151 13.9645L100 100L49 13.9645Z" fill="url(#paint1_linear_21_73)"/>
<path d="M100 100L151 13.9645C180.338 31.3927 200 63.4002 200 100H100Z" fill="url(#paint2_linear_21_73)"/>
<path d="M2.78745 91.9922L10.0594 92.1009L10.0299 94.0751L4.57593 93.9936L4.57529 94.0362L5.50312 95.6412L3.82717 95.6161L2.76028 93.8102L2.78745 91.9922Z" fill="white"/>
<path d="M57.7851 20.9356L57.0212 19.738L58.1015 16.3868C58.173 16.1643 58.2276 15.9638 58.2654 15.7853C58.3039 15.6035 58.3145 15.4353 58.2972 15.2806C58.282 15.1246 58.2286 14.9748 58.1369 14.8311C58.0363 14.6734 57.9164 14.5603 57.7773 14.4918C57.6401 14.4221 57.4935 14.3948 57.3376 14.4101C57.1804 14.4233 57.0249 14.4789 56.8712 14.577C56.7175 14.675 56.6015 14.7925 56.5233 14.9295C56.447 15.0652 56.4151 15.2133 56.4276 15.3738C56.4401 15.5343 56.5011 15.7004 56.6106 15.8721L55.0299 16.8804C54.7548 16.4493 54.6148 16.0163 54.6098 15.5815C54.6048 15.1466 54.7255 14.7327 54.9718 14.3396C55.2181 13.9466 55.5788 13.5986 56.0538 13.2956C56.5448 12.9824 57.0203 12.79 57.4801 12.7186C57.9407 12.6438 58.3592 12.6857 58.7355 12.8444C59.1139 13.0018 59.4247 13.271 59.6679 13.6523C59.8181 13.8878 59.9188 14.1535 59.97 14.4494C60.0199 14.7433 60.0078 15.1118 59.9339 15.555C59.8599 15.9981 59.7136 16.5632 59.4948 17.2503L59.2255 18.096L59.2484 18.132L61.6435 16.6041L62.4915 17.9334L57.7851 20.9356Z" fill="white"/>
<path d="M187.14 90.5026L188.674 90.4869L193.306 93.3658L193.321 94.7578L191.275 94.7787L191.267 93.9833L188.751 92.4322L188.694 92.4328L188.739 96.7508L187.204 96.7665L187.14 90.5026ZM186.04 94.051L187.645 94.0345L188.313 94.0703L193.313 94.0192L193.332 95.8657L186.06 95.9401L186.04 94.051Z" fill="white"/>
<path d="M150.977 26.4038C150.48 26.1176 150.089 25.7782 149.801 25.3856C149.517 24.9921 149.352 24.5814 149.307 24.1534C149.261 23.7253 149.35 23.3149 149.574 22.922L151.297 23.9156C151.229 24.0378 151.203 24.1677 151.22 24.3055C151.239 24.4424 151.297 24.5742 151.393 24.7009C151.49 24.8275 151.62 24.9382 151.784 25.0328C151.942 25.1239 152.097 25.1766 152.25 25.1911C152.404 25.2034 152.544 25.1789 152.67 25.1174C152.795 25.056 152.894 24.9601 152.967 24.8297C153.042 24.7037 153.068 24.5684 153.045 24.4239C153.024 24.2805 152.959 24.1403 152.849 24.0033C152.74 23.8663 152.593 23.7446 152.408 23.6382L151.768 23.2691L152.449 22.0879L153.089 22.4569C153.259 22.5551 153.425 22.6138 153.586 22.6329C153.749 22.6532 153.895 22.6349 154.024 22.5779C154.154 22.522 154.255 22.4299 154.327 22.3016C154.4 22.1797 154.433 22.0539 154.426 21.924C154.418 21.7942 154.375 21.6707 154.295 21.5535C154.217 21.4375 154.106 21.3381 153.963 21.2553C153.807 21.1654 153.651 21.1127 153.496 21.0971C153.344 21.0827 153.204 21.1046 153.077 21.1628C152.951 21.221 152.85 21.3131 152.774 21.4391L151.138 20.4952C151.362 20.1108 151.664 19.8313 152.044 19.6566C152.425 19.4832 152.848 19.4182 153.312 19.4618C153.776 19.5053 154.246 19.6643 154.722 19.9387C155.188 20.2072 155.553 20.5233 155.819 20.8871C156.087 21.252 156.241 21.6308 156.283 22.0236C156.327 22.4155 156.246 22.7882 156.039 23.1418C155.84 23.4969 155.552 23.7163 155.176 23.7999C154.802 23.8848 154.415 23.8395 154.016 23.664L153.988 23.7132C154.465 24.0619 154.757 24.4384 154.866 24.8426C154.975 25.2447 154.917 25.6374 154.691 26.0206C154.48 26.3909 154.18 26.6541 153.792 26.8103C153.406 26.9676 152.969 27.0131 152.48 26.9468C151.992 26.8817 151.492 26.7007 150.977 26.4038Z" fill="white"/>
<defs>
<linearGradient id="paint0_linear_21_73" x1="100.323" y1="0" x2="100.323" y2="100" gradientUnits="userSpaceOnUse">
<stop stop-color="#0FDA27"/>
<stop offset="1" stop-color="#087415"/>
</linearGradient>
<linearGradient id="paint1_linear_21_73" x1="100.323" y1="0" x2="100.323" y2="100" gradientUnits="userSpaceOnUse">
<stop stop-color="#EEFF05"/>
<stop offset="1" stop-color="#8F9903"/>
</linearGradient>
<linearGradient id="paint2_linear_21_73" x1="100.323" y1="0" x2="100.323" y2="100" gradientUnits="userSpaceOnUse">
<stop stop-color="#FF0004"/>
<stop offset="1" stop-color="#990003"/>
</linearGradient>
</defs>
</svg>
